<?xml version="1.0" encoding="UTF-8"?>
<svg id="Capa_1" xmlns="http://www.w3.org/2000/svg" version="1.1" viewBox="0 0 21.1 17.2">
  <!-- Generator: Adobe Illustrator 30.5.1, SVG Export Plug-In . SVG Version: 2.1.4 Build 3)  -->
  <path d="M1.2,15c-1-1.5-1.2-3.4-1.2-4.5C0,6.1,2.2,2.3,7,0l.6,1.2c-2.8,1.2-5.2,4-5.2,6.7s0,1,.2,1.4c.7-.5,1.6-.9,2.5-.9,2.4,0,4.4,1.6,4.4,4.4s-2,4.4-4.4,4.4-3.2-.9-4-2.2ZM12.7,15c-1-1.5-1.2-3.4-1.2-4.5,0-4.4,2.2-8.2,7-10.5l.6,1.2c-2.8,1.2-5.2,4-5.2,6.7s0,1,.2,1.4c.7-.5,1.6-.9,2.5-.9,2.4,0,4.4,1.6,4.4,4.4s-2,4.4-4.4,4.4-3.2-.9-4-2.2Z"/>
</svg>